
<svg xmlns="http://www.w3.org/2000/svg" width="24" height="24" viewBox="0 0 24 24" fill="#f26b21">
  <path d="M12 2c-5.5 0-10 4.5-10 10 0 .6.1 1.3.3 2 .1.5.6.8 1.1.8.3 0 .6-.2.8-.4l.6-.6c.2-.2.2-.5.1-.8-.1-.3-.1-.7-.1-1 0-3.9 3.1-7 7-7s7 3.1 7 7c0 .3 0 .7-.1 1-.1.3 0 .6.2.8l.6.6c.2.2.5.4.8.4.5 0 1-.3 1.1-.8.2-.7.3-1.3.3-2 0-5.5-4.5-10-10-10zm0 5c-2.8 0-5 2.2-5 5 0 .3 0 .7.1 1 .1.3 0 .6-.2.8l-.6.6c-.2.2-.5.4-.8.4-.5 0-1-.3-1.1-.8-.1-.3-.1-.7-.1-1 0-4.4 3.6-8 8-8s8 3.6 8 8c0 .3 0 .7-.1 1-.1.5-.6.8-1.1.8-.3 0-.6-.2-.8-.4l-.6-.6c-.2-.2-.2-.5-.1-.8.1-.3.1-.7.1-1 0-2.8-2.2-5-5-5zm-3 5c0-1.7 1.3-3 3-3s3 1.3 3 3-1.3 3-3 3-3-1.3-3-3zm3-1c-.6 0-1 .4-1 1s.4 1 1 1 1-.4 1-1-.4-1-1-1z"/>
</svg>
